# xmcd
#
# Track frame offsets: 
#        150
#        32330
#        52081
#        69303
#        91519
#        108707
#        127459
#        146780
#        163977
#        185892
#
# Disc length: 2655 seconds
#
# Revision: 0
# Processed by: cddbd v1.5.2PL0 Copyright (c) Steve Scherf et al.
# Submitted via: ExactAudioCopyFreeDBPlugin 1.0
#
DISCID=980a5d0a
DTITLE=River - I'll Be There For You (1999)
DYEAR=1999
DGENRE=Pop
TTITLE0=I'll Be There For You
TTITLE1=My Only Prayer
TTITLE2=Generations
TTITLE3=My Father's Example
TTITLE4=What A Little Prayer Can Do
TTITLE5=Let's Put Our Hearts Together
TTITLE6=I'll Be Your Hands
TTITLE7=Reason to Believe
TTITLE8=My Love
TTITLE9=Pass the Love Along
EXTD=
EXTT0=
EXTT1=
EXTT2=
EXTT3=
EXTT4=
EXTT5=
EXTT6=
EXTT7=
EXTT8=
EXTT9=
PLAYORDER=
